<svg xmlns="http://www.w3.org/2000/svg" viewBox="0 0 192 192" width="192" height="192">
  <rect width="192" height="192" rx="24" fill="#8B4513"/>
  <g fill="#FFFFF0">
    <!-- White keys -->
    <rect x="24" y="60" width="18" height="80" rx="3"/>
    <rect x="46" y="60" width="18" height="80" rx="3"/>
    <rect x="68" y="60" width="18" height="80" rx="3"/>
    <rect x="90" y="60" width="18" height="80" rx="3"/>
    <rect x="112" y="60" width="18" height="80" rx="3"/>
    <rect x="134" y="60" width="18" height="80" rx="3"/>
    <rect x="156" y="60" width="18" height="80" rx="3"/>
  </g>
  <g fill="#1a1a1a">
    <!-- Black keys -->
    <rect x="36" y="60" width="12" height="50" rx="2"/>
    <rect x="58" y="60" width="12" height="50" rx="2"/>
    <rect x="102" y="60" width="12" height="50" rx="2"/>
    <rect x="124" y="60" width="12" height="50" rx="2"/>
    <rect x="146" y="60" width="12" height="50" rx="2"/>
  </g>
  <!-- Text -->
  <text x="96" y="165" text-anchor="middle" font-family="Arial, sans-serif" font-size="16" font-weight="bold" fill="#FFFFF0">Harmonium</text>
</svg>
